<svg width="14" height="15" viewBox="0 0 14 15" fill="none" xmlns="http://www.w3.org/2000/svg">
<path d="M10.375 4.75C10.375 3.75544 9.97991 2.80161 9.27665 2.09835C8.57339 1.39509 7.61956 1 6.625 1C5.63044 1 4.67661 1.39509 3.97335 2.09835C3.27009 2.80161 2.875 3.75544 2.875 4.75C2.875 9.125 1 10.375 1 10.375H12.25C12.25 10.375 10.375 9.125 10.375 4.75Z" stroke="#2B2A2A" stroke-width="2" stroke-linecap="round" stroke-linejoin="round"/>
<path d="M7.70626 12.875C7.59638 13.0644 7.43866 13.2217 7.2489 13.331C7.05914 13.4403 6.844 13.4978 6.62501 13.4978C6.40602 13.4978 6.19088 13.4403 6.00112 13.331C5.81136 13.2217 5.65364 13.0644 5.54376 12.875" stroke="#2B2A2A" stroke-width="2" stroke-linecap="round" stroke-linejoin="round"/>
</svg>
